#!OML:ASF I:\Actors\actors\Patient Classification 2\Patient 1\Session 1\actor1.ASF
:FULLY-SPECIFIED
:DEGREES
277
root -0.587092 18.7629 5.51718 4.75868 -6.68322 -3.40585
lowerback 6.37362 1.38022 -5.79245
upperback -0.625193 1.25539 -2.96797
thorax -4.29196 0.718449 0.0421311
lowerneck -8.39367 -4.62025 -2.38735
upperneck 23.4906 -11.1716 20.1551
head 10.2569 -3.49562 6.30982
rclavicle 7.95139e-015 2.38542e-014
rhumerus 10.3094 44.0939 -38.1155
rradius 113.428
rwrist -10.2639
rhand -16.2445 -31.2323
rfingers 7.12502
rthumb 9.9643 -60.9765
lclavicle 7.95139e-015 2.38542e-014
lhumerus 3.35886 22.2179 84.7888
lradius 126.669
lwrist 103.445
lhand -31.4095 -32.184
lfingers 7.12502
lthumb -4.67854 -2.25563
rfemur 0 0 0
rtibia 0
rfoot 0 0
rtoes 0
lfemur -6.94479 -5.7481 -11.2734
ltibia 22.372
lfoot -26.5122 18.8259
ltoes -52.7344
278
root -0.584575 18.7621 5.51593 4.73159 -6.66794 -3.37258
lowerback 6.36593 1.35033 -5.73696
upperback -0.65216 1.22218 -2.90086
thorax -4.31433 0.702476 0.0840583
lowerneck -8.27371 -4.62799 -2.31901
upperneck 23.4191 -11.2127 20.2888
head 10.2199 -3.50801 6.34211
rclavicle -1.98785e-015 -1.43125e-014
rhumerus 12.6593 44.0929 -37.1317
rradius 113.552
rwrist -10.1649
rhand -16.1454 -31.7167
rfingers 7.12502
rthumb 10.0599 -61.4562
lclavicle -1.98785e-015 -1.43125e-014
lhumerus 3.1233 22.0559 84.8821
lradius 126.548
lwrist 103.558
lhand -31.2843 -31.7435
lfingers 7.12502
lthumb -4.55768 -1.81251
rfemur 0 0 0
rtibia 0
rfoot 0 0
rtoes 0
lfemur -6.93224 -5.77163 -11.3172
ltibia 22.3856
lfoot -26.5635 18.7849
ltoes -52.6511
279
root -0.582337 18.7615 5.51361 4.68464 -6.61264 -3.37451
lowerback 6.38826 1.30766 -5.63148
upperback -0.662444 1.17532 -2.81345
thorax -4.33481 0.678581 0.1203
lowerneck -8.26022 -4.6507 -2.24639
upperneck 23.4816 -11.2869 20.3369
head 10.252 -3.52825 6.34214
rclavicle -7.15625e-015 1.59028e-015
rhumerus 14.978 43.9303 -36.1778
rradius 113.576
rwrist -10.1342
rhand -15.9391 -31.8431
rfingers 7.12502
rthumb 10.2589 -61.5729
lclavicle -7.15625e-015 1.59028e-015
lhumerus 2.85501 21.8615 84.9098
lradius 126.42
lwrist 103.727
lhand -31.1369 -31.6267
lfingers 7.12502
lthumb -4.41537 -1.6927
rfemur 0 0 0
rtibia 0
rfoot 0 0
rtoes 0
lfemur -6.91587 -5.68125 -11.3104
ltibia 22.4024
lfoot -26.4266 18.7125
ltoes -52.7278
280
root -0.581352 18.7614 5.51017 4.6501 -6.52492 -3.37432
lowerback 6.38647 1.28253 -5.51838
upperback -0.6418 1.15586 -2.73179
thorax -4.31029 0.666719 0.144677
lowerneck -8.39024 -4.69743 -2.08398
upperneck 23.6233 -11.3886 20.2121
head 10.3288 -3.55447 6.25731
rclavicle -3.26007e-014 1.74931e-014
rhumerus 17.3005 43.6835 -35.0252
rradius 113.605
rwrist -9.93452
rhand -15.8796 -31.8255
rfingers 7.12502
rthumb 10.3163 -61.5525
lclavicle -3.26007e-014 1.74931e-014
lhumerus 2.61715 21.5327 84.944
lradius 126.266
lwrist 103.874
lhand -30.9354 -31.9228
lfingers 7.12502
lthumb -4.2208 -1.98489
rfemur 0 0 0
rtibia 0
rfoot 0 0
rtoes 0
lfemur -6.9331 -5.58512 -11.2933
ltibia 22.4211
lfoot -26.2472 18.6328
ltoes -52.8263
281
root -0.581166 18.7613 5.50751 4.61876 -6.4251 -3.32926
lowerback 6.27681 1.26754 -5.41078
upperback -0.557882 1.15972 -2.68394
thorax -4.15929 0.66302 0.138318
lowerneck -8.54639 -4.75472 -1.96353
upperneck 23.6686 -11.4897 20.1301
head 10.3805 -3.58455 6.19068
rclavicle 7.95139e-015 -3.18055e-015
rhumerus 19.7541 43.3751 -33.6905
rradius 113.668
rwrist -9.79219
rhand -15.9959 -32.091
rfingers 7.12502
rthumb 10.2041 -61.8235
lclavicle 7.95139e-015 -3.18055e-015
lhumerus 2.57769 21.1515 85.0986
lradius 126.146
lwrist 103.919
lhand -30.8953 -32.2626
lfingers 7.12502
lthumb -4.18201 -2.32391
rfemur 0 0 0
rtibia 0
rfoot 0 0
rtoes 0
lfemur -6.9619 -5.57077 -11.3259
ltibia 22.451
lfoot -26.1801 18.5401
ltoes -52.8499
282
root -0.581551 18.7609 5.50609 4.56723 -6.32493 -3.27528
lowerback 6.16354 1.2359 -5.2894
upperback -0.474942 1.1413 -2.65751
thorax -4.00579 0.647874 0.10422
lowerneck -8.61307 -4.77895 -2.01941
upperneck 23.644 -11.5511 20.2693
head 10.4086 -3.60221 6.24463
rclavicle -7.35503e-015 3.18055e-014
rhumerus 22.0792 43.074 -32.6196
rradius 113.671
rwrist -9.90245
rhand -16.038 -32.4342
rfingers 7.12502
rthumb 10.1635 -62.1687
lclavicle -7.35503e-015 3.18055e-014
lhumerus 2.57631 20.8139 85.2118
lradius 126.075
lwrist 103.972
lhand -30.9946 -32.5901
lfingers 7.12502
lthumb -4.27797 -2.65332
rfemur 0 0 0
rtibia 0
rfoot 0 0
rtoes 0
lfemur -6.96612 -5.58775 -11.3756
ltibia 22.496
lfoot -26.1712 18.4383
ltoes -52.8711
283
root -0.581485 18.7599 5.50514 4.51165 -6.24243 -3.3305
lowerback 6.1451 1.2014 -5.05327
upperback -0.445795 1.1177 -2.62027
thorax -3.95954 0.630622 0.0146264
lowerneck -8.49022 -4.72617 -2.08873
upperneck 23.4661 -11.4895 20.5394
head 10.3342 -3.57386 6.36251
rclavicle -1.92821e-014 -1.59028e-015
rhumerus 24.1749 42.8474 -31.8394
rradius 113.635
rwrist -10.048
rhand -16.0191 -32.7075
rfingers 7.12502
rthumb 10.1817 -62.4411
lclavicle -1.92821e-014 -1.59028e-015
lhumerus 2.46758 20.5085 85.1992
lradius 126.036
lwrist 104.049
lhand -31.0817 -32.8709
lfingers 7.12502
lthumb -4.36206 -2.93582
rfemur 0 0 0
rtibia 0
rfoot 0 0
rtoes 0
lfemur -6.94817 -5.60182 -11.3076
ltibia 22.5476
lfoot -26.159 18.347
ltoes -52.8766
284
root -0.580473 18.7587 5.50544 4.46005 -6.18454 -3.47054
lowerback 6.17411 1.19051 -4.70518
upperback -0.444949 1.12844 -2.59533
thorax -3.96829 0.629237 -0.15515
lowerneck -8.26735 -4.63339 -1.9658
upperneck 23.1576 -11.3467 20.7295
head 10.1637 -3.51267 6.4184
rclavicle 1.72943e-014 -7.95139e-015
rhumerus 26.0768 42.5797 -31.2224
rradius 113.6
rwrist -10.0662
rhand -15.9431 -32.9241
rfingers 7.12502
rthumb 10.255 -62.6541
lclavicle 1.72943e-014 -7.95139e-015
lhumerus 2.37661 20.1855 85.1502
lradius 125.958
lwrist 103.984
lhand -31.1052 -32.9602
lfingers 7.12502
lthumb -4.38468 -3.02556
rfemur 0 0 0
rtibia 0
rfoot 0 0
rtoes 0
lfemur -6.92341 -5.56408 -11.1469
ltibia 22.598
lfoot -26.0923 18.27
ltoes -52.911
285
root -0.580906 18.7583 5.5068 4.42668 -6.12025 -3.52329
lowerback 6.16819 1.18031 -4.4915
upperback -0.464857 1.1309 -2.58562
thorax -3.98129 0.6266 -0.264698
lowerneck -8.25462 -4.63649 -1.9912
upperneck 23.1765 -11.4085 20.9462
head 10.1966 -3.52322 6.50129
rclavicle -1.27222e-014 3.65764e-014
rhumerus 27.8846 42.2834 -30.6722
rradius 113.53
rwrist -10.0164
rhand -15.8973 -33.0927
rfingers 7.12502
rthumb 10.2992 -62.8205
lclavicle -1.27222e-014 3.65764e-014
lhumerus 2.29901 19.9035 85.0951
lradius 125.835
lwrist 103.902
lhand -31.0134 -33.1075
lfingers 7.12502
lthumb -4.29603 -3.17111
rfemur 0 0 0
rtibia 0
rfoot 0 0
rtoes 0
lfemur -6.93307 -5.40387 -11.0711
ltibia 22.6441
lfoot -25.9352 18.1458
ltoes -53.0192
286
root -0.583027 18.7584 5.50788 4.41792 -6.04201 -3.47913
lowerback 6.0804 1.15595 -4.43713
upperback -0.471899 1.10873 -2.57252
thorax -3.93753 0.614185 -0.277467
lowerneck -8.32673 -4.69137 -2.2136
upperneck 23.3374 -11.5767 21.2662
head 10.334 -3.57704 6.65498
rclavicle 1.92821e-014 2.54444e-014
rhumerus 29.6964 41.9675 -30.0576
rradius 113.483
rwrist -10.0696
rhand -15.8889 -33.3512
rfingers 7.12502
rthumb 10.3073 -63.0786
lclavicle 1.92821e-014 2.54444e-014
lhumerus 2.24465 19.7111 85.0998
lradius 125.74
lwrist 103.959
lhand -30.8618 -33.3891
lfingers 7.12502
lthumb -4.14967 -3.44981
rfemur 0 0 0
rtibia 0
rfoot 0 0
rtoes 0
lfemur -6.96763 -5.3344 -11.1015
ltibia 22.6793
lfoot -25.8531 18.0628
ltoes -53.0878
287
root -0.585316 18.7592 5.50802 4.42247 -5.97335 -3.4229
lowerback 5.96796 1.12879 -4.41007
upperback -0.469943 1.08256 -2.56443
thorax -3.87091 0.599894 -0.279187
lowerneck -8.25372 -4.67106 -1.96408
upperneck 23.2603 -11.5322 21.1245
head 10.2602 -3.55606 6.55583
rclavicle 1.47101e-014 -7.95139e-015
rhumerus 31.4341 41.6436 -29.4273
rradius 113.503
rwrist -10.2235
rhand -15.8471 -33.7806
rfingers 7.12502
rthumb 10.3477 -63.506
lclavicle 1.47101e-014 -7.95139e-015
lhumerus 2.20584 19.5619 85.1439
lradius 125.679
lwrist 104.046
lhand -30.8733 -33.2887
lfingers 7.12502
lthumb -4.1608 -3.34955
rfemur 0 0 0
rtibia 0
rfoot 0 0
rtoes 0
lfemur -6.98985 -5.45561 -11.1617
ltibia 22.6886
lfoot -25.8651 18.1338
ltoes -53.1801
288
root -0.588657 18.7601 5.50677 4.4234 -5.92952 -3.3893
lowerback 6.35341 1.17244 -4.18543
upperback -0.791001 1.11242 -2.6917
thorax -4.41665 0.618139 -0.55416
lowerneck -8.04967 -4.67912 -1.44861
upperneck 23.3781 -11.5773 20.8558
head 10.2225 -3.55859 6.36225
rclavicle -1.55052e-014 4.77083e-015
rhumerus 32.3859 41.6624 -29.3657
rradius 113.57
rwrist -10.3188
rhand -15.5817 -34.142
rfingers 7.12502
rthumb 10.6037 -63.8544
lclavicle -1.55052e-014 4.77083e-015
lhumerus 1.69924 19.1528 84.9049
lradius 125.65
lwrist 104.145
lhand -31.0932 -32.8124
lfingers 7.12502
lthumb -4.37313 -2.8776
rfemur 0 0 0
rtibia 0
rfoot 0 0
rtoes 0
lfemur -6.99705 -5.41255 -11.1826
ltibia 22.6703
lfoot -25.7682 18.1293
ltoes -53.3667
289
root -0.593143 18.7602 5.50554 4.41929 -5.92104 -3.37073
lowerback 6.48159 1.1845 -4.15034
upperback -0.925997 1.11673 -2.69533
thorax -4.62939 0.623019 -0.583714
lowerneck -8.09363 -4.62449 -1.25042
upperneck 23.5075 -11.5537 20.8179
head 10.2642 -3.5208 6.32182
rclavicle 5.96354e-016 -6.36111e-015
rhumerus 33.7523 41.5427 -28.97
rradius 113.611
rwrist -10.477
rhand -15.2717 -34.3524
rfingers 7.12502
rthumb 10.9027 -64.0493
lclavicle 5.96354e-016 -6.36111e-015
lhumerus 1.50156 18.9607 84.8458
lradius 125.609
lwrist 104.204
lhand -31.1416 -32.5093
lfingers 7.12502
lthumb -4.41983 -2.57538
rfemur 0 0 0
rtibia 0
rfoot 0 0
rtoes 0
lfemur -6.98808 -5.34795 -11.1808
ltibia 22.6431
lfoot -25.7115 18.0876
ltoes -53.4109
290
root -0.596431 18.7596 5.50573 4.42239 -5.95272 -3.34631
lowerback 6.27964 1.169 -4.25072
upperback -0.857195 1.10752 -2.6229
thorax -4.44658 0.619236 -0.445426
lowerneck -8.21169 -4.58273 -1.22217
upperneck 23.4824 -11.5163 20.8768
head 10.2778 -3.48977 6.34108
rclavicle -8.94531e-015 -2.22639e-014
rhumerus 35.5424 41.2221 -28.1997
rradius 113.605
rwrist -10.6197
rhand -15.2992 -34.4786
rfingers 7.12502
rthumb 10.8762 -64.1769
lclavicle -8.94531e-015 -2.22639e-014
lhumerus 1.64149 18.95 84.9865
lradius 125.598
lwrist 104.162
lhand -31.0544 -32.4285
lfingers 7.12502
lthumb -4.33565 -2.49287
rfemur 0 0 0
rtibia 0
rfoot 0 0
rtoes 0
lfemur -6.96491 -5.49494 -11.2124
ltibia 22.6167
lfoot -25.8146 18.2044
ltoes -53.3325
291
root -0.598085 18.7592 5.5061 4.41581 -6.00137 -3.31772
lowerback 5.9529 1.14374 -4.40959
upperback -0.695278 1.09511 -2.51728
thorax -4.09815 0.612119 -0.235607
lowerneck -8.40858 -4.60393 -1.26475
upperneck 23.4528 -11.5606 20.9245
head 10.3201 -3.49972 6.35671
rclavicle -1.51076e-014 1.74931e-014
rhumerus 37.5112 40.784 -27.2015
rradius 113.578
rwrist -10.6929
rhand -15.3514 -34.7096
rfingers 7.12502
rthumb 10.8258 -64.4106
lclavicle -1.51076e-014 1.74931e-014
lhumerus 1.95752 19.0247 85.239
lradius 125.607
lwrist 103.971
lhand -31.096 -32.4108
lfingers 7.12502
lthumb -4.3758 -2.47597
rfemur 0 0 0
rtibia 0
rfoot 0 0
rtoes 0
lfemur -6.92556 -5.48888 -11.2495
ltibia 22.5805
lfoot -25.8306 18.2426
ltoes -53.3076
